{
  "format": 1,
  "ticksPerBeat": 96,
  "tracks": [
    {
      "byteLength": 431,
      "events": [
        {
          "deltaTime": 0,
          "type": "noteOn",
          "channel": 0,
          "note": 60,
          "velocity": 100
        },
        {
          "deltaTime": 48,
          "type": "noteOff",
          "channel": 0,
          "note": 60,
          "velocity": 64
        },
        {
          "deltaTime": 0,
          "type": "noteOn",
          "channel": 0,
          "note": 61,
          "velocity": 100
        },
        {
          "deltaTime": 48,
          "type": "noteOff",
          "channel": 0,
          "note": 61,
          "velocity": 64
        },
        {
          "deltaTime": 0,
          "type": "noteOn",
          "channel": 0,
          "note": 62,
          "velocity": 100
        },
        {
          "deltaTime": 48,
          "type": "noteOff",
          "channel": 0,
          "note": 62,
          "velocity": 64
        },
        {
          "deltaTime": 0,
          "type": "noteOn",
          "channel": 0,
          "note": 63,
          "velocity": 100
        },
        {
          "deltaTime": 24,
          "type": "noteOff",
          "channel": 0,
          "note": 63,
          "velocity": 64
        },
        {
          "deltaTime": 0,
          "type": "noteOn",
          "channel": 0,
          "note": 65,
          "velocity": 100
        },
        {
          "deltaTime": 24,
          "type": "noteOff",
          "channel": 0,
          "note": 65,
          "velocity": 64
        },
        {
          "deltaTime": 0,
          "type": "noteOn",
          "channel": 0,
          "note": 66,
          "velocity": 100
        },
        {
          "deltaTime": 24,
          "type": "noteOff",
          "channel": 0,
          "note": 66,
          "velocity": 64
        },
        {
          "deltaTime": 0,
          "type": "noteOn",
          "channel": 0,
          "note": 63,
          "velocity": 100
        },
        {
          "deltaTime": 24,
          "type": "noteOff",
          "channel": 0,
          "note": 63,
          "velocity": 64
        },
        {
          "deltaTime": 0,
          "type": "noteOn",
          "channel": 0,
          "note": 65,
          "velocity": 100
        },
        {
          "deltaTime": 24,
          "type": "noteOn",
          "channel": 0,
          "note": 66,
          "velocity": 100
        },
        {
          "deltaTime": 24,
          "type": "noteOff",
          "channel": 0,
          "note": 65,
          "velocity": 64
        },
        {
          "deltaTime": 0,
          "type": "noteOff",
          "channel": 0,
          "note": 66,
          "velocity": 64
        },
        {
          "deltaTime": 0,
          "type": "noteOn",
          "channel": 0,
          "note": 68,
          "velocity": 100
        },
        {
          "deltaTime": 48,
          "type": "noteOff",
          "channel": 0,
          "note": 68,
          "velocity": 64
        },
        {
          "deltaTime": 0,
          "type": "noteOn",
          "channel": 0,
          "note": 70,
          "velocity": 100
        },
        {
          "deltaTime": 24,
          "type": "noteOff",
          "channel": 0,
          "note": 70,
          "velocity": 64
        },
        {
          "deltaTime": 0,
          "type": "noteOn",
          "channel": 0,
          "note": 66,
          "velocity": 100
        },
        {
          "deltaTime": 24,
          "type": "noteOff",
          "channel": 0,
          "note": 66,
          "velocity": 64
        },
        {
          "deltaTime": 0,
          "type": "noteOn",
          "channel": 0,
          "note": 60,
          "velocity": 100
        },
        {
          "deltaTime": 48,
          "type": "noteOff",
          "channel": 0,
          "note": 60,
          "velocity": 64
        },
        {
          "deltaTime": 0,
          "type": "noteOn",
          "channel": 0,
          "note": 61,
          "velocity": 100
        },
        {
          "deltaTime": 48,
          "type": "noteOff",
          "channel": 0,
          "note": 61,
          "velocity": 64
        },
        {
          "deltaTime": 0,
          "type": "noteOn",
          "channel": 0,
          "note": 62,
          "velocity": 100
        },
        {
          "deltaTime": 48,
          "type": "noteOff",
          "channel": 0,
          "note": 62,
          "velocity": 64
        },
        {
          "deltaTime": 0,
          "type": "noteOn",
          "channel": 0,
          "note": 67,
          "velocity": 91
        },
        {
          "deltaTime": 0,
          "type": "noteOn",
          "channel": 0,
          "note": 63,
          "velocity": 100
        },
        {
          "deltaTime": 24,
          "type": "noteOff",
          "channel": 0,
          "note": 67,
          "velocity": 64
        },
        {
          "deltaTime": 0,
          "type": "noteOff",
          "channel": 0,
          "note": 63,
          "velocity": 64
        },
        {
          "deltaTime": 0,
          "type": "noteOn",
          "channel": 0,
          "note": 67,
          "velocity": 98
        },
        {
          "deltaTime": 24,
          "type": "noteOff",
          "channel": 0,
          "note": 67,
          "velocity": 64
        },
        {
          "deltaTime": 0,
          "type": "noteOn",
          "channel": 0,
          "note": 61,
          "velocity": 100
        },
        {
          "deltaTime": 0,
          "type": "noteOn",
          "channel": 0,
          "note": 66,
          "velocity": 100
        },
        {
          "deltaTime": 24,
          "type": "noteOff",
          "channel": 0,
          "note": 61,
          "velocity": 64
        },
        {
          "deltaTime": 0,
          "type": "noteOff",
          "channel": 0,
          "note": 66,
          "velocity": 64
        },
        {
          "deltaTime": 0,
          "type": "noteOn",
          "channel": 0,
          "note": 63,
          "velocity": 100
        },
        {
          "deltaTime": 24,
          "type": "noteOff",
          "channel": 0,
          "note": 63,
          "velocity": 64
        },
        {
          "deltaTime": 0,
          "type": "noteOn",
          "channel": 0,
          "note": 65,
          "velocity": 100
        },
        {
          "deltaTime": 24,
          "type": "noteOn",
          "channel": 0,
          "note": 66,
          "velocity": 100
        },
        {
          "deltaTime": 24,
          "type": "noteOff",
          "channel": 0,
          "note": 65,
          "velocity": 64
        },
        {
          "deltaTime": 0,
          "type": "noteOff",
          "channel": 0,
          "note": 66,
          "velocity": 64
        },
        {
          "deltaTime": 0,
          "type": "noteOn",
          "channel": 0,
          "note": 68,
          "velocity": 100
        },
        {
          "deltaTime": 48,
          "type": "noteOff",
          "channel": 0,
          "note": 68,
          "velocity": 64
        },
        {
          "deltaTime": 0,
          "type": "noteOn",
          "channel": 0,
          "note": 70,
          "velocity": 100
        },
        {
          "deltaTime": 24,
          "type": "noteOff",
          "channel": 0,
          "note": 70,
          "velocity": 64
        },
        {
          "deltaTime": 0,
          "type": "noteOn",
          "channel": 0,
          "note": 66,
          "velocity": 100
        },
        {
          "deltaTime": 24,
          "type": "noteOff",
          "channel": 0,
          "note": 66,
          "velocity": 64
        },
        {
          "deltaTime": 0,
          "type": "noteOn",
          "channel": 0,
          "note": 60,
          "velocity": 31
        },
        {
          "deltaTime": 12,
          "type": "noteOff",
          "channel": 0,
          "note": 60,
          "velocity": 64
        },
        {
          "deltaTime": 0,
          "type": "noteOn",
          "channel": 0,
          "note": 60,
          "velocity": 45
        },
        {
          "deltaTime": 12,
          "type": "noteOff",
          "channel": 0,
          "note": 60,
          "velocity": 64
        },
        {
          "deltaTime": 0,
          "type": "noteOn",
          "channel": 0,
          "note": 60,
          "velocity": 62
        },
        {
          "deltaTime": 12,
          "type": "noteOff",
          "channel": 0,
          "note": 60,
          "velocity": 64
        },
        {
          "deltaTime": 0,
          "type": "noteOn",
          "channel": 0,
          "note": 60,
          "velocity": 80
        },
        {
          "deltaTime": 12,
          "type": "noteOff",
          "channel": 0,
          "note": 60,
          "velocity": 64
        },
        {
          "deltaTime": 0,
          "type": "noteOn",
          "channel": 0,
          "note": 60,
          "velocity": 100
        },
        {
          "deltaTime": 48,
          "type": "noteOff",
          "channel": 0,
          "note": 60,
          "velocity": 64
        },
        {
          "deltaTime": 0,
          "type": "noteOn",
          "channel": 0,
          "note": 62,
          "velocity": 100
        },
        {
          "deltaTime": 48,
          "type": "noteOff",
          "channel": 0,
          "note": 62,
          "velocity": 64
        },
        {
          "deltaTime": 0,
          "type": "noteOn",
          "channel": 0,
          "note": 63,
          "velocity": 100
        },
        {
          "deltaTime": 24,
          "type": "noteOff",
          "channel": 0,
          "note": 63,
          "velocity": 64
        },
        {
          "deltaTime": 0,
          "type": "noteOn",
          "channel": 0,
          "note": 62,
          "velocity": 66
        },
        {
          "deltaTime": 12,
          "type": "noteOff",
          "channel": 0,
          "note": 62,
          "velocity": 64
        },
        {
          "deltaTime": 0,
          "type": "noteOn",
          "channel": 0,
          "note": 63,
          "velocity": 100
        },
        {
          "deltaTime": 12,
          "type": "noteOff",
          "channel": 0,
          "note": 63,
          "velocity": 64
        },
        {
          "deltaTime": 0,
          "type": "noteOn",
          "channel": 0,
          "note": 65,
          "velocity": 100
        },
        {
          "deltaTime": 48,
          "type": "noteOff",
          "channel": 0,
          "note": 65,
          "velocity": 64
        },
        {
          "deltaTime": 0,
          "type": "noteOn",
          "channel": 0,
          "note": 67,
          "velocity": 100
        },
        {
          "deltaTime": 24,
          "type": "noteOff",
          "channel": 0,
          "note": 67,
          "velocity": 64
        },
        {
          "deltaTime": 0,
          "type": "noteOn",
          "channel": 0,
          "note": 65,
          "velocity": 100
        },
        {
          "deltaTime": 24,
          "type": "noteOff",
          "channel": 0,
          "note": 65,
          "velocity": 64
        },
        {
          "deltaTime": 0,
          "type": "noteOn",
          "channel": 0,
          "note": 68,
          "velocity": 100
        },
        {
          "deltaTime": 48,
          "type": "noteOff",
          "channel": 0,
          "note": 68,
          "velocity": 64
        },
        {
          "deltaTime": 0,
          "type": "noteOn",
          "channel": 0,
          "note": 70,
          "velocity": 100
        },
        {
          "deltaTime": 24,
          "type": "noteOff",
          "channel": 0,
          "note": 70,
          "velocity": 64
        },
        {
          "deltaTime": 0,
          "type": "noteOn",
          "channel": 0,
          "note": 67,
          "velocity": 100
        },
        {
          "deltaTime": 24,
          "type": "noteOff",
          "channel": 0,
          "note": 67,
          "velocity": 64
        },
        {
          "deltaTime": 0,
          "type": "noteOn",
          "channel": 0,
          "note": 60,
          "velocity": 100
        },
        {
          "deltaTime": 48,
          "type": "noteOff",
          "channel": 0,
          "note": 60,
          "velocity": 64
        },
        {
          "deltaTime": 0,
          "type": "noteOn",
          "channel": 0,
          "note": 61,
          "velocity": 100
        },
        {
          "deltaTime": 48,
          "type": "noteOff",
          "channel": 0,
          "note": 61,
          "velocity": 64
        },
        {
          "deltaTime": 0,
          "type": "noteOn",
          "channel": 0,
          "note": 62,
          "velocity": 100
        },
        {
          "deltaTime": 48,
          "type": "noteOff",
          "channel": 0,
          "note": 62,
          "velocity": 64
        },
        {
          "deltaTime": 0,
          "type": "noteOn",
          "channel": 0,
          "note": 60,
          "velocity": 100
        },
        {
          "deltaTime": 48,
          "type": "noteOff",
          "channel": 0,
          "note": 60,
          "velocity": 64
        },
        {
          "deltaTime": 0,
          "type": "noteOn",
          "channel": 0,
          "note": 61,
          "velocity": 100
        },
        {
          "deltaTime": 48,
          "type": "noteOff",
          "channel": 0,
          "note": 61,
          "velocity": 64
        },
        {
          "deltaTime": 0,
          "type": "noteOn",
          "channel": 0,
          "note": 62,
          "velocity": 100
        },
        {
          "deltaTime": 48,
          "type": "noteOff",
          "channel": 0,
          "note": 62,
          "velocity": 64
        },
        {
          "deltaTime": 0,
          "type": "noteOn",
          "channel": 0,
          "note": 63,
          "velocity": 100
        },
        {
          "deltaTime": 24,
          "type": "noteOff",
          "channel": 0,
          "note": 63,
          "velocity": 64
        },
        {
          "deltaTime": 0,
          "type": "noteOn",
          "channel": 0,
          "note": 67,
          "velocity": 100
        },
        {
          "deltaTime": 24,
          "type": "noteOff",
          "channel": 0,
          "note": 67,
          "velocity": 64
        },
        {
          "deltaTime": 0,
          "type": "noteOn",
          "channel": 0,
          "note": 63,
          "velocity": 100
        },
        {
          "deltaTime": 24,
          "type": "noteOff",
          "channel": 0,
          "note": 63,
          "velocity": 64
        },
        {
          "deltaTime": 0,
          "type": "noteOn",
          "channel": 0,
          "note": 67,
          "velocity": 100
        },
        {
          "deltaTime": 12,
          "type": "noteOff",
          "channel": 0,
          "note": 67,
          "velocity": 64
        },
        {
          "deltaTime": 0,
          "type": "noteOn",
          "channel": 0,
          "note": 67,
          "velocity": 100
        },
        {
          "deltaTime": 12,
          "type": "noteOff",
          "channel": 0,
          "note": 67,
          "velocity": 64
        }
      ]
    }
  ]
}